<svg width="24" height="24" viewBox="0 0 24 24" fill="none" xmlns="http://www.w3.org/2000/svg">
<g clip-path="url(#clip0_874_14043)">
<g clip-path="url(#clip1_874_14043)">
<path d="M15.0496 3.35288C17.827 4.00437 19.9956 6.17301 20.6471 8.95043C21.1176 10.9563 21.1176 13.0437 20.6471 15.0496C19.9956 17.827 17.827 19.9956 15.0496 20.6471C13.0437 21.1176 10.9563 21.1176 8.95043 20.6471C6.173 19.9956 4.00437 17.827 3.35287 15.0496C2.88237 13.0437 2.88237 10.9563 3.35287 8.95044C4.00437 6.17301 6.173 4.00437 8.95043 3.35288C10.9563 2.88237 13.0437 2.88237 15.0496 3.35288Z" stroke="#363853" stroke-width="1.5"/>
<path d="M11 9.5L13.5 12L11 14.5" stroke="#363853" stroke-width="1.5" stroke-linecap="round" stroke-linejoin="round"/>
</g>
</g>
<defs>
<clipPath id="clip0_874_14043">
<rect width="24" height="24" fill="white"/>
</clipPath>
<clipPath id="clip1_874_14043">
<rect width="24" height="24" fill="white" transform="translate(24) rotate(90)"/>
</clipPath>
</defs>
</svg>
