<svg width="24" height="24" viewBox="0 0 24 24" fill="none" xmlns="http://www.w3.org/2000/svg">
<g clip-path="url(#clip0_874_14382)">
<path d="M9 22H7C3 22 2 21 2 17V7C2 3 3 2 7 2H8.5C10 2 10.33 2.44001 10.9 3.20001L12.4 5.20001C12.78 5.70001 13 6 14 6H17C21 6 22 7 22 11V13" stroke="#292D32" stroke-width="1.5" stroke-miterlimit="10" stroke-linecap="round" stroke-linejoin="round"/>
<g clip-path="url(#clip1_874_14382)">
<path d="M16.7917 21.75C18.9778 21.75 20.75 19.9778 20.75 17.7917C20.75 15.6055 18.9778 13.8333 16.7917 13.8333C14.6056 13.8333 12.8334 15.6055 12.8334 17.7917C12.8334 19.9778 14.6056 21.75 16.7917 21.75Z" stroke="#292D32" stroke-linecap="round" stroke-linejoin="round"/>
<path d="M21.1667 22.1667L20.3334 21.3333" stroke="#292D32" stroke-linecap="round" stroke-linejoin="round"/>
</g>
</g>
<defs>
<clipPath id="clip0_874_14382">
<rect width="24" height="24" fill="white"/>
</clipPath>
<clipPath id="clip1_874_14382">
<rect width="10" height="10" fill="white" transform="translate(12 13)"/>
</clipPath>
</defs>
</svg>
