<svg width="24" height="24" viewBox="0 0 24 24" fill="none" xmlns="http://www.w3.org/2000/svg">
<g clip-path="url(#clip0_874_14403)">
<path d="M8.17997 16.02C7.41997 15.95 6.66998 15.6 6.08998 14.99C4.76998 13.6 4.76998 11.32 6.08998 9.93001L8.27998 7.63002C9.59998 6.24002 11.77 6.24002 13.1 7.63002C14.42 9.02002 14.42 11.3 13.1 12.69L12.01 13.84" stroke="#292D32" stroke-width="1.5" stroke-linecap="round" stroke-linejoin="round"/>
<path d="M15.8199 7.98004C16.5799 8.05004 17.3299 8.40004 17.9099 9.01004C19.2299 10.4 19.2299 12.68 17.9099 14.07L15.7199 16.37C14.3999 17.76 12.2299 17.76 10.8999 16.37C9.57991 14.98 9.57991 12.7 10.8999 11.31L11.9899 10.16" stroke="#292D32" stroke-width="1.5" stroke-linecap="round" stroke-linejoin="round"/>
<path d="M9 22H15C20 22 22 20 22 15V9C22 4 20 2 15 2H9C4 2 2 4 2 9V15C2 20 4 22 9 22Z" stroke="#292D32" stroke-width="1.5" stroke-linecap="round" stroke-linejoin="round"/>
</g>
<defs>
<clipPath id="clip0_874_14403">
<rect width="24" height="24" fill="white"/>
</clipPath>
</defs>
</svg>
