<svg width="24" height="24" viewBox="0 0 24 24" fill="none" xmlns="http://www.w3.org/2000/svg">
<g clip-path="url(#clip0_874_14060)">
<path d="M9.02 2.84004L3.63 7.04004C2.73 7.74004 2 9.23004 2 10.36V17.77C2 20.09 3.89 21.99 6.21 21.99H17.79C20.11 21.99 22 20.09 22 17.78V10.5C22 9.29004 21.19 7.74004 20.2 7.05004L14.02 2.72004C12.62 1.74004 10.37 1.79004 9.02 2.84004Z" stroke="#292D32" stroke-width="1.5" stroke-linecap="round" stroke-linejoin="round"/>
<path d="M10.5 18H13.5C15.15 18 16.5 16.65 16.5 15V12C16.5 10.35 15.15 9 13.5 9H10.5C8.85 9 7.5 10.35 7.5 12V15C7.5 16.65 8.85 18 10.5 18Z" stroke="#292D32" stroke-width="1.5" stroke-linecap="round" stroke-linejoin="round"/>
<path d="M12 9V18" stroke="#292D32" stroke-width="1.5" stroke-linecap="round" stroke-linejoin="round"/>
<path d="M7.5 13.5H16.5" stroke="#292D32" stroke-width="1.5" stroke-linecap="round" stroke-linejoin="round"/>
</g>
<defs>
<clipPath id="clip0_874_14060">
<rect width="24" height="24" fill="white"/>
</clipPath>
</defs>
</svg>
