<svg width="24" height="24" viewBox="0 0 24 24" fill="none" xmlns="http://www.w3.org/2000/svg">
<g clip-path="url(#clip0_874_14448)">
<path d="M12 14.5C13.956 14.5 15.5417 12.9144 15.5417 10.9584C15.5417 9.00235 13.956 7.41669 12 7.41669C10.044 7.41669 8.45837 9.00235 8.45837 10.9584C8.45837 12.9144 10.044 14.5 12 14.5Z" stroke="#292D32" stroke-width="1.0625" stroke-linecap="round" stroke-linejoin="round"/>
<path d="M5.91541 21.5833C5.91541 18.8421 8.64249 16.625 12 16.625C12.68 16.625 13.3387 16.7171 13.955 16.8871" stroke="#292D32" stroke-width="1.0625" stroke-linecap="round" stroke-linejoin="round"/>
<path d="M19.0833 18.75C19.0833 18.9767 19.055 19.1963 18.9983 19.4088C18.9345 19.6921 18.8212 19.9684 18.6725 20.2092C18.1837 21.0309 17.2841 21.5834 16.25 21.5834C15.5204 21.5834 14.8616 21.3071 14.3658 20.8537C14.1533 20.6696 13.9691 20.45 13.8274 20.2092C13.5654 19.7842 13.4166 19.2813 13.4166 18.75C13.4166 17.985 13.7212 17.2838 14.217 16.7738C14.7341 16.2425 15.4566 15.9167 16.25 15.9167C17.0858 15.9167 17.8437 16.2779 18.3537 16.8588C18.807 17.3617 19.0833 18.0275 19.0833 18.75Z" stroke="#292D32" stroke-width="1.0625" stroke-miterlimit="10" stroke-linecap="round" stroke-linejoin="round"/>
<path d="M17.3054 18.7358H15.1946" stroke="#292D32" stroke-width="1.0625" stroke-miterlimit="10" stroke-linecap="round" stroke-linejoin="round"/>
<path d="M15 22.75H9C3.57 22.75 1.25 20.43 1.25 15V9C1.25 3.57 3.57 1.25 9 1.25H15C20.43 1.25 22.75 3.57 22.75 9V15C22.75 20.43 20.43 22.75 15 22.75ZM9 2.75C4.39 2.75 2.75 4.39 2.75 9V15C2.75 19.61 4.39 21.25 9 21.25H15C19.61 21.25 21.25 19.61 21.25 15V9C21.25 4.39 19.61 2.75 15 2.75H9Z" fill="#292D32"/>
</g>
<defs>
<clipPath id="clip0_874_14448">
<rect width="24" height="24" fill="white"/>
</clipPath>
</defs>
</svg>
