<svg width="24" height="24" viewBox="0 0 24 24" fill="none" xmlns="http://www.w3.org/2000/svg">
<path d="M8.59 17.2234C9.46813 17.2234 10.18 16.5116 10.18 15.6335C10.18 14.7554 9.46813 14.0435 8.59 14.0435C7.71186 14.0435 7 14.7554 7 15.6335C7 16.5116 7.71186 17.2234 8.59 17.2234Z" stroke="#292D32" stroke-width="1.5" stroke-linecap="round" stroke-linejoin="round"/>
<path d="M16 14.5735V8.36343C16 7.04343 15.17 6.8534 14.33 7.0834L11.15 7.95346C10.57 8.11346 10.17 8.56343 10.17 9.23343V10.3434V11.0834V15.6335" stroke="#292D32" stroke-width="1.5" stroke-linecap="round" stroke-linejoin="round"/>
<path d="M14.4101 16.1634C15.2882 16.1634 16.0001 15.4516 16.0001 14.5734C16.0001 13.6953 15.2882 12.9834 14.4101 12.9834C13.5319 12.9834 12.8201 13.6953 12.8201 14.5734C12.8201 15.4516 13.5319 16.1634 14.4101 16.1634Z" stroke="#292D32" stroke-width="1.5" stroke-linecap="round" stroke-linejoin="round"/>
<path d="M10.1799 10.8735L15.9999 9.28345" stroke="#292D32" stroke-width="1.5" stroke-linecap="round" stroke-linejoin="round"/>
<path d="M9 22H15C20 22 22 20 22 15V9C22 4 20 2 15 2H9C4 2 2 4 2 9V15C2 20 4 22 9 22Z" stroke="#292D32" stroke-width="1.5" stroke-linecap="round" stroke-linejoin="round"/>
</svg>
