<svg width="24" height="24" viewBox="0 0 24 24" fill="none" xmlns="http://www.w3.org/2000/svg">
<g clip-path="url(#clip0_874_14133)">
<path d="M1 22H23" stroke="#292D32" stroke-width="1.5" stroke-miterlimit="10" stroke-linecap="round" stroke-linejoin="round"/>
<path d="M19.78 22.0101V17.55" stroke="#292D32" stroke-width="1.5" stroke-miterlimit="10" stroke-linecap="round" stroke-linejoin="round"/>
<path d="M19.8 10.89C18.58 10.89 17.6 11.87 17.6 13.09V15.36C17.6 16.58 18.58 17.56 19.8 17.56C21.02 17.56 22 16.58 22 15.36V13.09C22 11.87 21.02 10.89 19.8 10.89Z" stroke="#292D32" stroke-width="1.5" stroke-miterlimit="10" stroke-linecap="round" stroke-linejoin="round"/>
<path d="M2.09998 22V6.03003C2.09998 4.02003 3.10003 3.01001 5.09003 3.01001H11.32C13.31 3.01001 14.3 4.02003 14.3 6.03003V22" stroke="#292D32" stroke-width="1.5" stroke-miterlimit="10" stroke-linecap="round" stroke-linejoin="round"/>
<path d="M5.80005 8.25H10.7501" stroke="#292D32" stroke-width="1.5" stroke-miterlimit="10" stroke-linecap="round" stroke-linejoin="round"/>
<path d="M5.80005 12H10.7501" stroke="#292D32" stroke-width="1.5" stroke-miterlimit="10" stroke-linecap="round" stroke-linejoin="round"/>
<path d="M8.25 22V18.25" stroke="#292D32" stroke-width="1.5" stroke-miterlimit="10" stroke-linecap="round" stroke-linejoin="round"/>
</g>
<defs>
<clipPath id="clip0_874_14133">
<rect width="24" height="24" fill="white"/>
</clipPath>
</defs>
</svg>
