<svg width="24" height="24" viewBox="0 0 24 24" fill="none" xmlns="http://www.w3.org/2000/svg">
<g clip-path="url(#clip0_874_14523)">
<g clip-path="url(#clip1_874_14523)">
<path d="M9 22H15C20 22 22 20 22 15V9C22 4 20 2 15 2H9C4 2 2 4 2 9V15C2 20 4 22 9 22Z" stroke="#292D32" stroke-width="1.5" stroke-linecap="round" stroke-linejoin="round"/>
</g>
<path d="M10.72 14.53V9.46999C10.72 8.98999 10.52 8.79999 10.01 8.79999H8.71C8.2 8.79999 8 8.98999 8 9.46999V14.53C8 15.01 8.2 15.2 8.71 15.2H10C10.52 15.2 10.72 15.01 10.72 14.53Z" stroke="#292D32" stroke-width="1.5" stroke-linecap="round" stroke-linejoin="round"/>
<path d="M16 14.53V9.46999C16 8.98999 15.8 8.79999 15.29 8.79999H14C13.49 8.79999 13.29 8.98999 13.29 9.46999V14.53C13.29 15.01 13.49 15.2 14 15.2H15.29C15.8 15.2 16 15.01 16 14.53Z" stroke="#292D32" stroke-width="1.5" stroke-linecap="round" stroke-linejoin="round"/>
</g>
<defs>
<clipPath id="clip0_874_14523">
<rect width="24" height="24" fill="white"/>
</clipPath>
<clipPath id="clip1_874_14523">
<rect width="24" height="24" fill="white"/>
</clipPath>
</defs>
</svg>
