<svg width="24" height="24" viewBox="0 0 24 24" fill="none" xmlns="http://www.w3.org/2000/svg">
<g clip-path="url(#clip0_874_14518)">
<path d="M9 22H15C20 22 22 20 22 15V9C22 4 20 2 15 2H9C4 2 2 4 2 9V15C2 20 4 22 9 22Z" stroke="#292D32" stroke-width="1.5" stroke-linecap="round" stroke-linejoin="round"/>
<path d="M9 12.004V10.3341C9 8.25405 10.47 7.40405 12.27 8.44405L13.72 9.28405L15.17 10.1241C16.97 11.1641 16.97 12.864 15.17 13.904L13.72 14.7441L12.27 15.5841C10.47 16.6241 9 15.774 9 13.694V12.004Z" stroke="#292D32" stroke-width="1.5" stroke-miterlimit="10" stroke-linecap="round" stroke-linejoin="round"/>
</g>
<defs>
<clipPath id="clip0_874_14518">
<rect width="24" height="24" fill="white"/>
</clipPath>
</defs>
</svg>
