<svg width="24" height="24" viewBox="0 0 24 24" fill="none" xmlns="http://www.w3.org/2000/svg">
<path d="M11.75 16.5C14.3734 16.5 16.5 14.3734 16.5 11.75C16.5 9.12665 14.3734 7 11.75 7C9.12665 7 7 9.12665 7 11.75C7 14.3734 9.12665 16.5 11.75 16.5Z" stroke="#292D32" stroke-width="0.8" stroke-linecap="round" stroke-linejoin="round"/>
<path d="M17 17L16 16" stroke="#292D32" stroke-width="0.8" stroke-linecap="round" stroke-linejoin="round"/>
<path d="M9 22H15C20 22 22 20 22 15V9C22 4 20 2 15 2H9C4 2 2 4 2 9V15C2 20 4 22 9 22Z" stroke="#292D32" stroke-width="1.5" stroke-linecap="round" stroke-linejoin="round"/>
</svg>
