<svg width="24" height="24" viewBox="0 0 24 24" fill="none" xmlns="http://www.w3.org/2000/svg">
<g clip-path="url(#clip0_874_14110)">
<path d="M16.96 6.17004C18.96 7.56004 20.34 9.77004 20.62 12.32" stroke="#292D32" stroke-width="1.5" stroke-linecap="round" stroke-linejoin="round"/>
<path d="M3.48999 12.37C3.74999 9.82997 5.10999 7.61997 7.08999 6.21997" stroke="#292D32" stroke-width="1.5" stroke-linecap="round" stroke-linejoin="round"/>
<path d="M8.18994 20.9399C9.34994 21.5299 10.6699 21.8599 12.0599 21.8599C13.3999 21.8599 14.6599 21.5599 15.7899 21.0099" stroke="#292D32" stroke-width="1.5" stroke-linecap="round" stroke-linejoin="round"/>
<path d="M12.06 7.70001C13.5954 7.70001 14.84 6.45537 14.84 4.92001C14.84 3.38466 13.5954 2.14001 12.06 2.14001C10.5247 2.14001 9.28003 3.38466 9.28003 4.92001C9.28003 6.45537 10.5247 7.70001 12.06 7.70001Z" stroke="#292D32" stroke-width="1.5" stroke-linecap="round" stroke-linejoin="round"/>
<path d="M4.83005 19.92C6.3654 19.92 7.61005 18.6753 7.61005 17.14C7.61005 15.6046 6.3654 14.36 4.83005 14.36C3.2947 14.36 2.05005 15.6046 2.05005 17.14C2.05005 18.6753 3.2947 19.92 4.83005 19.92Z" stroke="#292D32" stroke-width="1.5" stroke-linecap="round" stroke-linejoin="round"/>
<path d="M19.17 19.92C20.7054 19.92 21.95 18.6753 21.95 17.14C21.95 15.6046 20.7054 14.36 19.17 14.36C17.6347 14.36 16.39 15.6046 16.39 17.14C16.39 18.6753 17.6347 19.92 19.17 19.92Z" stroke="#292D32" stroke-width="1.5" stroke-linecap="round" stroke-linejoin="round"/>
</g>
<defs>
<clipPath id="clip0_874_14110">
<rect width="24" height="24" fill="white"/>
</clipPath>
</defs>
</svg>
