<svg width="24" height="24" viewBox="0 0 24 24" fill="none" xmlns="http://www.w3.org/2000/svg">
<g clip-path="url(#clip0_874_14567)">
<g clip-path="url(#clip1_874_14567)">
<g clip-path="url(#clip2_874_14567)">
<path d="M9 22H15C20 22 22 20 22 15V9C22 4 20 2 15 2H9C4 2 2 4 2 9V15C2 20 4 22 9 22Z" stroke="#292D32" stroke-width="1.5" stroke-linecap="round" stroke-linejoin="round"/>
</g>
</g>
<path d="M10.96 16.46H13.5C15.62 16.46 16.46 15.61 16.46 13.5V10.96C16.46 8.84 15.61 8 13.5 8H10.96C8.84 8 8 8.85 8 10.96V13.5C8 15.61 8.85 16.46 10.96 16.46Z" stroke="#292D32" stroke-width="1.5" stroke-linecap="round" stroke-linejoin="round"/>
</g>
<defs>
<clipPath id="clip0_874_14567">
<rect width="24" height="24" fill="white"/>
</clipPath>
<clipPath id="clip1_874_14567">
<rect width="24" height="24" fill="white"/>
</clipPath>
<clipPath id="clip2_874_14567">
<rect width="24" height="24" fill="white"/>
</clipPath>
</defs>
</svg>
