<svg width="24" height="24" viewBox="0 0 24 24" fill="none" xmlns="http://www.w3.org/2000/svg">
<g clip-path="url(#clip0_874_14579)">
<path d="M16.52 5.64997L13.42 3.24997C13.02 2.84997 12.12 2.64997 11.52 2.64997L7.72002 2.64997C6.52002 2.64997 5.22002 3.54997 4.92002 4.74997L2.52002 12.05C2.02002 13.45 2.92002 14.65 4.42002 14.65L8.42002 14.65C9.02002 14.65 9.52002 15.15 9.42002 15.85L8.92002 19.05C8.72002 19.95 9.32002 20.95 10.22 21.25C11.02 21.55 12.02 21.15 12.42 20.55L16.52 14.45" stroke="#292D32" stroke-width="1.5" stroke-miterlimit="10"/>
<path d="M21.6201 5.64997L21.6201 15.45C21.6201 16.85 21.0201 17.35 19.6201 17.35L18.6201 17.35C17.2201 17.35 16.6201 16.85 16.6201 15.45L16.6201 5.64997C16.6201 4.24997 17.2201 3.74997 18.6201 3.74997L19.6201 3.74998C21.0201 3.74998 21.6201 4.24997 21.6201 5.64997Z" stroke="#292D32" stroke-width="1.5" stroke-linecap="round" stroke-linejoin="round"/>
</g>
<defs>
<clipPath id="clip0_874_14579">
<rect width="24" height="24" fill="white" transform="matrix(1 0 0 -1 0 24)"/>
</clipPath>
</defs>
</svg>
