<svg width="24" height="24" viewBox="0 0 24 24" fill="none" xmlns="http://www.w3.org/2000/svg">
<path d="M11.9999 14.5C13.9559 14.5 15.5416 12.9143 15.5416 10.9583C15.5416 9.00228 13.9559 7.41663 11.9999 7.41663C10.0439 7.41663 8.45825 9.00228 8.45825 10.9583C8.45825 12.9143 10.0439 14.5 11.9999 14.5Z" stroke="#292D32" stroke-width="1.0625" stroke-linecap="round" stroke-linejoin="round"/>
<path d="M5.91528 21.5833C5.91528 18.8421 8.64236 16.625 11.9999 16.625C12.6799 16.625 13.3386 16.7171 13.9549 16.8871" stroke="#292D32" stroke-width="1.0625" stroke-linecap="round" stroke-linejoin="round"/>
<path d="M19.0834 18.75C19.0834 18.9766 19.0551 19.1962 18.9984 19.4087C18.9347 19.692 18.8213 19.9683 18.6726 20.2091C18.1838 21.0308 17.2842 21.5833 16.2501 21.5833C15.5205 21.5833 14.8617 21.307 14.3659 20.8537C14.1534 20.6695 13.9692 20.45 13.8276 20.2091C13.5655 19.7841 13.4167 19.2812 13.4167 18.75C13.4167 17.985 13.7213 17.2837 14.2172 16.7737C14.7343 16.2425 15.4567 15.9166 16.2501 15.9166C17.0859 15.9166 17.8438 16.2779 18.3538 16.8587C18.8072 17.3616 19.0834 18.0275 19.0834 18.75Z" stroke="#292D32" stroke-width="1.0625" stroke-miterlimit="10" stroke-linecap="round" stroke-linejoin="round"/>
<path d="M17.3054 18.7358H15.1946" stroke="#292D32" stroke-width="1.0625" stroke-miterlimit="10" stroke-linecap="round" stroke-linejoin="round"/>
<path d="M16.25 17.7017V19.8196" stroke="#292D32" stroke-width="1.0625" stroke-miterlimit="10" stroke-linecap="round" stroke-linejoin="round"/>
<path d="M15 22.75H9C3.57 22.75 1.25 20.43 1.25 15V9C1.25 3.57 3.57 1.25 9 1.25H15C20.43 1.25 22.75 3.57 22.75 9V15C22.75 20.43 20.43 22.75 15 22.75ZM9 2.75C4.39 2.75 2.75 4.39 2.75 9V15C2.75 19.61 4.39 21.25 9 21.25H15C19.61 21.25 21.25 19.61 21.25 15V9C21.25 4.39 19.61 2.75 15 2.75H9Z" fill="#292D32"/>
</svg>
