<svg width="24" height="24" viewBox="0 0 24 24" fill="none" xmlns="http://www.w3.org/2000/svg">
<g clip-path="url(#clip0_874_14772)">
<path d="M6 9.96004C9.63 7.15004 14.37 7.15004 18 9.96004" stroke="#292D32" stroke-width="1.5" stroke-linecap="round" stroke-linejoin="round"/>
<path d="M7.59998 13.05C10.27 10.99 13.74 10.99 16.41 13.05" stroke="#292D32" stroke-width="1.5" stroke-linecap="round" stroke-linejoin="round"/>
<path d="M9.80005 16.1401C11.13 15.1101 12.87 15.1101 14.2 16.1401" stroke="#292D32" stroke-width="1.5" stroke-linecap="round" stroke-linejoin="round"/>
<path d="M9 22L15 22C20 22 22 20 22 15L22 9C22 4 20 2 15 2L9 2C4 2 2 4 2 9L2 15C2 20 4 22 9 22Z" stroke="#292D32" stroke-width="1.5" stroke-linecap="round" stroke-linejoin="round"/>
</g>
<defs>
<clipPath id="clip0_874_14772">
<rect width="24" height="24" fill="white"/>
</clipPath>
</defs>
</svg>
